<svg width="1094" height="1004" viewBox="0 0 1094 1004" fill="none" xmlns="http://www.w3.org/2000/svg">
<ellipse cx="581.853" cy="944.422" rx="512.147" ry="59.5407" fill="#2F2E2E"/>
<path fill-rule="evenodd" clip-rule="evenodd" d="M484.071 0C751.416 0 968.142 216.726 968.142 484.071C968.142 751.416 751.416 968.142 484.071 968.142C250.137 968.142 54.9607 802.2 9.8308 581.607H195.073C195.073 721.265 321.747 834.48 478.008 834.48C634.268 834.48 760.942 721.265 760.942 581.607H762.231V484.071H0C0 216.726 216.726 0 484.071 0ZM478.008 148.111C321.747 148.112 195.073 261.327 195.073 400.985H760.942C760.942 261.327 634.268 148.111 478.008 148.111Z" fill="black"/>
<path d="M484.071 0C745.427 0 958.405 207.125 967.815 466.183C959.38 257.17 787.272 90.3115 576.189 90.3114C359.719 90.3114 184.236 265.795 184.236 482.265C184.236 698.734 359.719 874.218 576.189 874.218C792.373 874.218 967.676 699.196 968.138 483.12C968.138 483.437 968.142 483.754 968.142 484.071C968.142 751.416 751.416 968.142 484.071 968.142C216.726 968.142 0 751.416 0 484.071C0 216.726 216.726 0 484.071 0Z" fill="url(#paint0_linear_186_7)"/>
<defs>
<linearGradient id="paint0_linear_186_7" x1="-215.412" y1="111.82" x2="484.071" y2="940.55" gradientUnits="userSpaceOnUse">
<stop stop-color="#D9D9D9"/>
<stop offset="0.556491" stop-color="#D9D9D9"/>
<stop offset="1" stop-color="#737373"/>
</linearGradient>
</defs>
</svg>
